<svg width="20" height="20" viewBox="0 0 20 20" fill="none" xmlns="http://www.w3.org/2000/svg">
<g id="icon/image/add_a_photo_24px">
<g id="&#226;&#134;&#179; Dark Color">
<path id="Mask" d="M17.5 4.99998H14.8583L13.3333 3.33331H7.5V4.99998H12.6L14.125 6.66665H17.5V16.6666H4.16667V8.33331H2.5V16.6666C2.5 17.5833 3.25 18.3333 4.16667 18.3333H17.5C18.4167 18.3333 19.1667 17.5833 19.1667 16.6666V6.66665C19.1667 5.74998 18.4167 4.99998 17.5 4.99998Z" fill="white"/>
</g>
<g id="&#226;&#134;&#179; Dark Color_2">
<path id="Mask_2" fill-rule="evenodd" clip-rule="evenodd" d="M10.8334 15.8333C8.53341 15.8333 6.66675 13.9667 6.66675 11.6667C6.66675 9.36667 8.53341 7.5 10.8334 7.5C13.1334 7.5 15.0001 9.36667 15.0001 11.6667C15.0001 13.9667 13.1334 15.8333 10.8334 15.8333ZM13.3334 11.6667C13.3334 10.2917 12.2084 9.16667 10.8334 9.16667C9.45841 9.16667 8.33341 10.2917 8.33341 11.6667C8.33341 13.0417 9.45841 14.1667 10.8334 14.1667C12.2084 14.1667 13.3334 13.0417 13.3334 11.6667Z" fill="white"/>
</g>
<g id="&#226;&#134;&#179; Dark Color_3">
<path id="Mask_3" d="M4.16667 7.49998V4.99998H6.66667V3.33331H4.16667V0.833313H2.5V3.33331H0V4.99998H2.5V7.49998H4.16667Z" fill="white"/>
</g>
</g>
</svg>
